HIERARCHY
ROOT Hips
{
	OFFSET 0.000000 0.000000 0.000000
	CHANNELS 6 Xposition Yposition Zposition Zrotation Xrotation Yrotation
	JOINT Spine
	{
		OFFSET 0.000000 0.059888 0.006665
		CHANNELS 6 Xposition Yposition Zposition Zrotation Xrotation Yrotation
		JOINT Chest
		{
			OFFSET 0.000000 0.125681 -0.015911
			CHANNELS 6 Xposition Yposition Zposition Zrotation Xrotation Yrotation
			JOINT UpperChest
			{
				OFFSET 0.000000 0.122768 -0.001652
				CHANNELS 6 Xposition Yposition Zposition Zrotation Xrotation Yrotation
				JOINT Neck
				{
					OFFSET 0.000000 0.155865 0.008735
					CHANNELS 6 Xposition Yposition Zposition Zrotation Xrotation Yrotation
					JOINT Head
					{
						OFFSET 0.000000 0.095969 -0.000410
						CHANNELS 6 Xposition Yposition Zposition Zrotation Xrotation Yrotation
						JOINT LeftEye
						{
							OFFSET 0.015267 0.059218 0.021494
							CHANNELS 6 Xposition Yposition Zposition Zrotation Xrotation Yrotation
							End Site
							{
								OFFSET 0.015267 0.059218 0.021494
							}
						}
						JOINT RightEye
						{
							OFFSET -0.015267 0.059218 0.021494
							CHANNELS 6 Xposition Yposition Zposition Zrotation Xrotation Yrotation
							End Site
							{
								OFFSET -0.015267 0.059218 0.021494
							}
						}
					}
				}
				JOINT LeftShoulder
				{
					OFFSET 0.025383 0.124268 0.007699
					CHANNELS 6 Xposition Yposition Zposition Zrotation Xrotation Yrotation
					JOINT LeftUpperArm
					{
						OFFSET 0.136062 0.000000 0.000000
						CHANNELS 6 Xposition Yposition Zposition Zrotation Xrotation Yrotation
						JOINT LeftLowerArm
						{
							OFFSET 0.225446 0.000000 0.000000
							CHANNELS 6 Xposition Yposition Zposition Zrotation Xrotation Yrotation
							JOINT LeftHand
							{
								OFFSET 0.256325 0.000003 0.000015
								CHANNELS 6 Xposition Yposition Zposition Zrotation Xrotation Yrotation
								JOINT LeftIndexProximal
								{
									OFFSET 0.074229 0.008101 0.022282
									CHANNELS 6 Xposition Yposition Zposition Zrotation Xrotation Yrotation
									JOINT LeftIndexIntermediate
									{
										OFFSET 0.037712 0.000000 -0.000001
										CHANNELS 6 Xposition Yposition Zposition Zrotation Xrotation Yrotation
										JOINT LeftIndexDistal
										{
											OFFSET 0.023218 0.000022 0.000021
											CHANNELS 6 Xposition Yposition Zposition Zrotation Xrotation Yrotation
											End Site
											{
												OFFSET 0.023218 0.000022 0.000021
											}
										}
									}
								}
								JOINT LeftLittleProximal
								{
									OFFSET 0.069261 0.008101 -0.033073
									CHANNELS 6 Xposition Yposition Zposition Zrotation Xrotation Yrotation
									JOINT LeftLittleIntermediate
									{
										OFFSET 0.035643 0.000000 0.000000
										CHANNELS 6 Xposition Yposition Zposition Zrotation Xrotation Yrotation
										JOINT LeftLittleDistal
										{
											OFFSET 0.020542 0.000000 0.000000
											CHANNELS 6 Xposition Yposition Zposition Zrotation Xrotation Yrotation
											End Site
											{
												OFFSET 0.020542 0.000000 0.000000
											}
										}
									}
								}
								JOINT LeftMiddleProximal
								{
									OFFSET 0.075240 0.008101 0.002320
									CHANNELS 6 Xposition Yposition Zposition Zrotation Xrotation Yrotation
									JOINT LeftMiddleIntermediate
									{
										OFFSET 0.042007 0.000000 0.000000
										CHANNELS 6 Xposition Yposition Zposition Zrotation Xrotation Yrotation
										JOINT LeftMiddleDistal
										{
											OFFSET 0.025915 0.000000 0.000000
											CHANNELS 6 Xposition Yposition Zposition Zrotation Xrotation Yrotation
											End Site
											{
												OFFSET 0.025915 0.000000 0.000000
											}
										}
									}
								}
								JOINT LeftRingProximal
								{
									OFFSET 0.074383 0.008101 -0.015403
									CHANNELS 6 Xposition Yposition Zposition Zrotation Xrotation Yrotation
									JOINT LeftRingIntermediate
									{
										OFFSET 0.038967 0.000000 0.000000
										CHANNELS 6 Xposition Yposition Zposition Zrotation Xrotation Yrotation
										JOINT LeftRingDistal
										{
											OFFSET 0.022488 0.000000 0.000000
											CHANNELS 6 Xposition Yposition Zposition Zrotation Xrotation Yrotation
											End Site
											{
												OFFSET 0.022488 0.000000 0.000000
											}
										}
									}
								}
								JOINT LeftThumbProximal
								{
									OFFSET 0.003995 -0.010985 0.018096
									CHANNELS 6 Xposition Yposition Zposition Zrotation Xrotation Yrotation
									JOINT LeftThumbIntermediate
									{
										OFFSET 0.052819 -0.000008 -0.000074
										CHANNELS 6 Xposition Yposition Zposition Zrotation Xrotation Yrotation
										JOINT LeftThumbDistal
										{
											OFFSET 0.032489 0.000042 -0.000035
											CHANNELS 6 Xposition Yposition Zposition Zrotation Xrotation Yrotation
											End Site
											{
												OFFSET 0.032489 0.000042 -0.000035
											}
										}
									}
								}
							}
						}
					}
				}
				JOINT RightShoulder
				{
					OFFSET -0.025383 0.124268 0.007699
					CHANNELS 6 Xposition Yposition Zposition Zrotation Xrotation Yrotation
					JOINT RightUpperArm
					{
						OFFSET -0.136062 0.000000 0.000000
						CHANNELS 6 Xposition Yposition Zposition Zrotation Xrotation Yrotation
						JOINT RightLowerArm
						{
							OFFSET -0.225446 0.000000 0.000000
							CHANNELS 6 Xposition Yposition Zposition Zrotation Xrotation Yrotation
							JOINT RightHand
							{
								OFFSET -0.256325 0.000003 0.000015
								CHANNELS 6 Xposition Yposition Zposition Zrotation Xrotation Yrotation
								JOINT RightIndexProximal
								{
									OFFSET -0.074229 0.008101 0.022282
									CHANNELS 6 Xposition Yposition Zposition Zrotation Xrotation Yrotation
									JOINT RightIndexIntermediate
									{
										OFFSET -0.037712 0.000000 -0.000001
										CHANNELS 6 Xposition Yposition Zposition Zrotation Xrotation Yrotation
										JOINT RightIndexDistal
										{
											OFFSET -0.023218 0.000022 0.000021
											CHANNELS 6 Xposition Yposition Zposition Zrotation Xrotation Yrotation
											End Site
											{
												OFFSET -0.023218 0.000022 0.000021
											}
										}
									}
								}
								JOINT RightLittleProximal
								{
									OFFSET -0.069261 0.008101 -0.033073
									CHANNELS 6 Xposition Yposition Zposition Zrotation Xrotation Yrotation
									JOINT RightLittleIntermediate
									{
										OFFSET -0.035643 0.000000 0.000000
										CHANNELS 6 Xposition Yposition Zposition Zrotation Xrotation Yrotation
										JOINT RightLittleDistal
										{
											OFFSET -0.020542 0.000000 0.000000
											CHANNELS 6 Xposition Yposition Zposition Zrotation Xrotation Yrotation
											End Site
											{
												OFFSET -0.020542 0.000000 0.000000
											}
										}
									}
								}
								JOINT RightMiddleProximal
								{
									OFFSET -0.075240 0.008101 0.002320
									CHANNELS 6 Xposition Yposition Zposition Zrotation Xrotation Yrotation
									JOINT RightMiddleIntermediate
									{
										OFFSET -0.042007 0.000000 0.000000
										CHANNELS 6 Xposition Yposition Zposition Zrotation Xrotation Yrotation
										JOINT RightMiddleDistal
										{
											OFFSET -0.025915 0.000000 0.000000
											CHANNELS 6 Xposition Yposition Zposition Zrotation Xrotation Yrotation
											End Site
											{
												OFFSET -0.025915 0.000000 0.000000
											}
										}
									}
								}
								JOINT RightRingProximal
								{
									OFFSET -0.074383 0.008101 -0.015403
									CHANNELS 6 Xposition Yposition Zposition Zrotation Xrotation Yrotation
									JOINT RightRingIntermediate
									{
										OFFSET -0.038967 0.000000 0.000000
										CHANNELS 6 Xposition Yposition Zposition Zrotation Xrotation Yrotation
										JOINT RightRingDistal
										{
											OFFSET -0.022488 0.000000 0.000000
											CHANNELS 6 Xposition Yposition Zposition Zrotation Xrotation Yrotation
											End Site
											{
												OFFSET -0.022488 0.000000 0.000000
											}
										}
									}
								}
								JOINT RightThumbProximal
								{
									OFFSET -0.003995 -0.010985 0.018096
									CHANNELS 6 Xposition Yposition Zposition Zrotation Xrotation Yrotation
									JOINT RightThumbIntermediate
									{
										OFFSET -0.052819 -0.000008 -0.000074
										CHANNELS 6 Xposition Yposition Zposition Zrotation Xrotation Yrotation
										JOINT RightThumbDistal
										{
											OFFSET -0.032489 0.000042 -0.000035
											CHANNELS 6 Xposition Yposition Zposition Zrotation Xrotation Yrotation
											End Site
											{
												OFFSET -0.032489 0.000042 -0.000035
											}
										}
									}
								}
							}
						}
					}
				}
			}
		}
	}
	JOINT LeftUpperLeg
	{
		OFFSET 0.087143 -0.045243 0.001548
		CHANNELS 6 Xposition Yposition Zposition Zrotation Xrotation Yrotation
		JOINT LeftLowerLeg
		{
			OFFSET 0.000000 -0.394432 -0.000001
			CHANNELS 6 Xposition Yposition Zposition Zrotation Xrotation Yrotation
			JOINT LeftFoot
			{
				OFFSET 0.000000 -0.466446 0.003058
				CHANNELS 6 Xposition Yposition Zposition Zrotation Xrotation Yrotation
				JOINT LeftToes
				{
					OFFSET 0.000000 -0.079218 0.140851
					CHANNELS 6 Xposition Yposition Zposition Zrotation Xrotation Yrotation
					End Site
					{
						OFFSET 0.000000 -0.079218 0.140851
					}
				}
			}
		}
	}
	JOINT RightUpperLeg
	{
		OFFSET -0.087143 -0.045243 0.001548
		CHANNELS 6 Xposition Yposition Zposition Zrotation Xrotation Yrotation
		JOINT RightLowerLeg
		{
			OFFSET 0.000000 -0.394432 -0.000001
			CHANNELS 6 Xposition Yposition Zposition Zrotation Xrotation Yrotation
			JOINT RightFoot
			{
				OFFSET 0.000000 -0.466446 0.003058
				CHANNELS 6 Xposition Yposition Zposition Zrotation Xrotation Yrotation
				JOINT RightToes
				{
					OFFSET 0.000000 -0.079218 0.140851
					CHANNELS 6 Xposition Yposition Zposition Zrotation Xrotation Yrotation
					End Site
					{
						OFFSET 0.000000 -0.079218 0.140851
					}
				}
			}
		}
	}
}
MOTION
Frames: 4
Frame Time: 0.041667
-0.001849 1.033724 0.006290 0.992932 13.561156 13.942863 0.000000 0.059888 0.006665 -1.446838 7.100586 -0.299000 -0.000000 0.125681 -0.015911 -1.447117 0.108781 -0.540231 -0.000000 0.122768 -0.001652 -0.000046 -12.397785 -0.000107 -0.000000 0.155865 0.008735 -2.071132 16.953390 0.385321 -0.000000 0.095969 -0.000410 -0.742230 6.199548 7.561551 0.015267 0.059218 0.021494 -1.701127 3.586995 21.747935 -0.015267 0.059218 0.021494 1.701130 3.587002 -21.747923 0.025383 0.124268 0.007699 15.086180 -2.563199 15.627060 0.136062 -0.000000 -0.000000 -71.364849 22.203611 2.952549 0.225446 -0.000000 -0.000000 -5.374541 44.904122 -56.493478 0.256325 0.000003 0.000015 5.836958 14.434059 -10.660484 0.074229 0.008101 0.022282 -0.012967 0.667621 1.112107 0.037712 0.000000 -0.000001 -1.679195 1.282860 0.674521 0.023218 0.000022 0.000021 -0.334983 1.286452 -0.711001 0.069261 0.008101 -0.033073 0.000009 -0.000043 -0.000000 0.035643 0.000000 -0.000000 -0.000000 -0.000000 -0.000000 0.020542 0.000000 -0.000000 0.890203 -0.008565 -1.101174 0.075240 0.008101 0.002320 0.000002 -0.000006 -0.000006 0.042007 0.000000 -0.000000 0.000003 0.000039 -0.000013 0.025915 -0.000000 0.000000 0.000002 0.000035 -0.000016 0.074383 0.008101 -0.015403 -0.000001 0.000018 0.000003 0.038967 -0.000000 -0.000000 0.000004 -0.000000 -0.000002 0.022488 0.000000 -0.000000 -0.712575 -0.008160 1.310728 0.003995 -0.010985 0.018096 86.199494 49.487517 -89.646574 0.052819 -0.000008 -0.000074 -2.573037 -0.739915 0.463023 0.032489 0.000042 -0.000035 4.590285 -0.705068 -0.717109 -0.025383 0.124268 0.007699 7.123093 -2.577368 -14.276271 -0.136062 -0.000000 -0.000000 37.106710 20.601464 8.482108 -0.225446 -0.000000 -0.000000 12.840313 53.442600 63.075486 -0.256325 0.000003 0.000015 -5.808230 16.947164 6.422536 -0.074229 0.008101 0.022282 0.012969 0.667620 -1.112103 -0.037712 0.000000 -0.000001 1.679195 1.282863 -0.674525 -0.023218 0.000022 0.000021 0.334983 1.286453 0.710995 -0.069261 0.008101 -0.033073 -0.000004 -0.000043 -0.000001 -0.035643 0.000000 0.000000 -0.000003 -0.000000 -0.000003 -0.020542 -0.000000 -0.000000 -0.890203 -0.008561 1.101175 -0.075240 0.008101 0.002320 -0.000000 -0.000006 0.000006 -0.042007 -0.000000 0.000000 -0.000003 0.000039 0.000011 -0.025915 -0.000000 -0.000000 -0.000003 0.000039 0.000012 -0.074383 0.008101 -0.015403 -0.000002 0.000016 -0.000005 -0.038967 -0.000000 0.000000 -0.000001 0.000001 -0.000004 -0.022488 -0.000000 -0.000000 0.712572 -0.008157 -1.310728 -0.003995 -0.010985 0.018096 -86.199439 49.487524 89.646581 -0.052819 -0.000008 -0.000074 2.573040 -0.739911 -0.463021 -0.032489 0.000042 -0.000035 -4.590280 -0.705065 0.717110 0.087143 -0.045243 0.001548 -9.678978 -7.284818 -1.238939 -0.000000 -0.394432 -0.000001 3.962519 17.003565 0.543567 0.000000 -0.466446 0.003058 3.010694 -13.483643 13.057061 -0.000000 -0.079218 0.140851 -0.000002 0.248285 0.000001 -0.087143 -0.045243 0.001548 -15.943849 -17.339661 -4.866632 -0.000000 -0.394432 -0.000001 10.864215 30.264312 -20.424052 -0.000000 -0.466446 0.003058 5.899946 -13.481323 24.503659 -0.000000 -0.079218 0.140851 0.000000 0.248282 0.000000 
-0.001855 1.033513 0.006216 0.959380 13.647333 13.825713 -0.000000 0.059888 0.006665 -1.464501 7.035760 -0.264776 -0.000000 0.125681 -0.015911 -1.458478 0.044780 -0.548921 0.000000 0.122768 -0.001652 -0.000047 -12.397785 -0.000112 -0.000000 0.155865 0.008735 -2.085013 17.008418 0.392628 -0.000000 0.095969 -0.000410 -0.666502 6.398563 7.439055 0.015267 0.059218 0.021494 -1.701125 3.586998 21.747934 -0.015267 0.059218 0.021494 1.701131 3.587008 -21.747927 0.025383 0.124268 0.007699 15.147521 -2.539257 15.673484 0.136062 0.000000 0.000000 -71.559134 21.991006 3.349936 0.225446 -0.000000 -0.000000 -5.307809 44.856048 -56.489790 0.256325 0.000003 0.000015 6.000236 14.605005 -10.797389 0.074229 0.008101 0.022282 -0.012970 0.667619 1.112108 0.037712 0.000000 -0.000001 -1.679192 1.282856 0.674521 0.023218 0.000022 0.000021 -0.334984 1.286455 -0.711002 0.069261 0.008101 -0.033073 0.000004 -0.000042 0.000006 0.035643 -0.000000 0.000000 0.000001 0.000002 -0.000000 0.020542 0.000000 0.000000 0.890205 -0.008559 -1.101169 0.075240 0.008101 0.002320 -0.000004 -0.000009 -0.000004 0.042007 -0.000000 0.000000 0.000000 0.000038 -0.000010 0.025915 0.000000 0.000000 0.000003 0.000041 -0.000013 0.074383 0.008101 -0.015403 -0.000005 0.000014 0.000006 0.038967 -0.000000 0.000000 0.000003 0.000000 0.000002 0.022488 0.000000 0.000000 -0.712576 -0.008154 1.310730 0.003995 -0.010985 0.018096 86.199487 49.487521 -89.646574 0.052819 -0.000008 -0.000074 -2.573037 -0.739914 0.463026 0.032489 0.000042 -0.000035 4.590283 -0.705067 -0.717110 -0.025383 0.124268 0.007699 7.141080 -2.553695 -14.307819 -0.136062 0.000000 -0.000000 37.020670 20.621393 8.558236 -0.225446 -0.000000 -0.000000 12.902388 53.478923 63.044743 -0.256325 0.000003 0.000015 -5.958252 17.027020 6.498283 -0.074229 0.008101 0.022282 0.012968 0.667618 -1.112105 -0.037712 0.000000 -0.000001 1.679197 1.282861 -0.674519 -0.023218 0.000022 0.000021 0.334983 1.286454 0.710994 -0.069261 0.008101 -0.033073 -0.000004 -0.000045 0.000002 -0.035643 -0.000000 0.000000 -0.000003 0.000000 -0.000003 -0.020542 0.000000 -0.000000 -0.890204 -0.008561 1.101169 -0.075240 0.008101 0.002320 0.000001 -0.000009 0.000007 -0.042007 -0.000000 0.000000 0.000000 0.000040 0.000012 -0.025915 0.000000 0.000000 -0.000003 0.000039 0.000012 -0.074383 0.008101 -0.015403 0.000001 0.000014 -0.000003 -0.038967 -0.000000 -0.000000 -0.000003 -0.000002 0.000002 -0.022488 -0.000000 -0.000000 0.712574 -0.008159 -1.310732 -0.003995 -0.010985 0.018096 -86.199433 49.487517 89.646581 -0.052819 -0.000008 -0.000074 2.573042 -0.739910 -0.463021 -0.032489 0.000042 -0.000035 -4.590282 -0.705066 0.717110 0.087143 -0.045243 0.001548 -9.754454 -7.737375 -1.325875 0.000000 -0.394432 -0.000001 4.077275 17.354006 0.584089 0.000000 -0.466446 0.003058 3.090982 -13.920575 12.983764 0.000000 -0.079218 0.140851 -0.000002 0.248283 -0.000002 -0.087143 -0.045243 0.001548 -15.798439 -17.372701 -4.828980 0.000000 -0.394432 -0.000001 10.675165 29.917157 -20.243272 -0.000000 -0.466446 0.003058 5.931257 -13.764474 24.166697 -0.000000 -0.079218 0.140851 -0.000000 0.248283 -0.000001 
-0.001855 1.033513 0.006216 0.959380 13.647333 13.825713 -0.000000 0.059888 0.006665 -1.464501 7.035762 -0.264776 -0.000000 0.125681 -0.015911 -1.458478 0.044782 -0.548921 0.000000 0.122768 -0.001652 -0.000046 -12.397785 -0.000111 -0.000000 0.155865 0.008735 -2.085014 17.008418 0.392627 -0.000000 0.095969 -0.000410 -0.666500 6.398557 7.439053 0.015267 0.059218 0.021494 -1.701127 3.586992 21.747935 -0.015267 0.059218 0.021494 1.701132 3.587009 -21.747925 0.025383 0.124268 0.007699 15.147519 -2.539256 15.673484 0.136062 0.000000 -0.000000 -71.559134 21.991006 3.349937 0.225446 0.000000 -0.000000 -5.307800 44.856058 -56.489800 0.256325 0.000003 0.000015 6.000229 14.604994 -10.797374 0.074229 0.008101 0.022282 -0.012967 0.667618 1.112108 0.037712 0.000000 -0.000001 -1.679196 1.282859 0.674521 0.023218 0.000022 0.000021 -0.334985 1.286453 -0.710999 0.069261 0.008101 -0.033073 0.000005 -0.000043 0.000002 0.035643 -0.000000 -0.000000 0.000003 -0.000001 -0.000000 0.020542 0.000000 0.000000 0.890204 -0.008564 -1.101171 0.075240 0.008101 0.002320 -0.000000 -0.000009 -0.000004 0.042007 0.000000 0.000000 0.000002 0.000039 -0.000011 0.025915 0.000000 0.000000 0.000004 0.000041 -0.000014 0.074383 0.008101 -0.015403 -0.000003 0.000016 0.000006 0.038967 0.000000 0.000000 0.000002 0.000001 0.000003 0.022488 0.000000 0.000000 -0.712572 -0.008157 1.310729 0.003995 -0.010985 0.018096 86.199487 49.487521 -89.646581 0.052819 -0.000008 -0.000074 -2.573038 -0.739912 0.463022 0.032489 0.000042 -0.000035 4.590284 -0.705067 -0.717111 -0.025383 0.124268 0.007699 7.141081 -2.553695 -14.307818 -0.136062 0.000000 -0.000000 37.020684 20.621398 8.558227 -0.225446 -0.000000 -0.000000 12.902403 53.478913 63.044709 -0.256325 0.000003 0.000015 -5.958257 17.027030 6.498289 -0.074229 0.008101 0.022282 0.012967 0.667621 -1.112103 -0.037712 0.000000 -0.000001 1.679197 1.282861 -0.674519 -0.023218 0.000022 0.000021 0.334983 1.286454 0.710994 -0.069261 0.008101 -0.033073 -0.000004 -0.000044 0.000001 -0.035643 -0.000000 -0.000000 -0.000002 -0.000001 -0.000000 -0.020542 0.000000 -0.000000 -0.890203 -0.008561 1.101169 -0.075240 0.008101 0.002320 -0.000001 -0.000008 0.000005 -0.042007 -0.000000 -0.000000 -0.000001 0.000038 0.000013 -0.025915 -0.000000 0.000000 -0.000002 0.000041 0.000009 -0.074383 0.008101 -0.015403 -0.000003 0.000016 -0.000003 -0.038967 0.000000 -0.000000 -0.000003 0.000001 -0.000002 -0.022488 -0.000000 -0.000000 0.712572 -0.008157 -1.310733 -0.003995 -0.010985 0.018096 -86.199439 49.487514 89.646588 -0.052819 -0.000008 -0.000074 2.573041 -0.739909 -0.463021 -0.032489 0.000042 -0.000035 -4.590283 -0.705066 0.717110 0.087143 -0.045243 0.001548 -9.754454 -7.737375 -1.325875 0.000000 -0.394432 -0.000001 4.077275 17.354006 0.584089 0.000000 -0.466446 0.003058 3.090982 -13.920575 12.983764 0.000000 -0.079218 0.140851 -0.000002 0.248283 -0.000002 -0.087143 -0.045243 0.001548 -15.798439 -17.372701 -4.828980 0.000000 -0.394432 -0.000001 10.675164 29.917157 -20.243272 -0.000000 -0.466446 0.003058 5.931256 -13.764474 24.166693 -0.000000 -0.079218 0.140851 0.000000 0.248285 -0.000001 
-0.002232 1.034173 0.004342 0.775691 13.690029 13.191847 -0.000000 0.059888 0.006665 -1.484005 6.901310 0.254717 -0.000000 0.125681 -0.015911 -1.394902 -0.076431 -0.556777 0.000000 0.122768 -0.001652 -0.000045 -12.397786 -0.000112 -0.000000 0.155865 0.008735 -2.056932 17.261068 0.407685 -0.000000 0.095969 -0.000410 -0.357762 6.938184 7.348741 0.015267 0.059218 0.021494 -1.701129 3.586994 21.747930 -0.015267 0.059218 0.021494 1.701130 3.587003 -21.747925 0.025383 0.124268 0.007699 15.363020 -2.536124 15.963279 0.136062 -0.000000 -0.000000 -72.209784 22.163800 3.526842 0.225446 0.000000 -0.000000 -4.751921 44.389522 -56.072431 0.256325 0.000003 0.000015 5.719804 14.858073 -10.639770 0.074229 0.008101 0.022282 -0.012965 0.667620 1.112104 0.037712 0.000000 -0.000001 -1.679194 1.282860 0.674518 0.023218 0.000022 0.000021 -0.334982 1.286455 -0.710997 0.069261 0.008101 -0.033073 0.000006 -0.000040 0.000002 0.035643 -0.000000 -0.000000 0.000003 -0.000000 -0.000002 0.020542 0.000000 0.000000 0.890204 -0.008560 -1.101172 0.075240 0.008101 0.002320 0.000003 -0.000006 -0.000005 0.042007 -0.000000 -0.000000 0.000001 0.000039 -0.000015 0.025915 0.000000 0.000000 0.000003 0.000041 -0.000015 0.074383 0.008101 -0.015403 0.000000 0.000017 0.000005 0.038967 0.000000 -0.000000 0.000001 0.000001 -0.000002 0.022488 -0.000000 0.000000 -0.712573 -0.008152 1.310733 0.003995 -0.010985 0.018096 86.199487 49.487514 -89.646574 0.052819 -0.000008 -0.000074 -2.573036 -0.739913 0.463023 0.032489 0.000042 -0.000035 4.590285 -0.705069 -0.717111 -0.025383 0.124268 0.007699 7.171355 -2.551816 -14.596889 -0.136062 0.000000 0.000000 36.717792 20.816506 9.002319 -0.225446 -0.000000 -0.000000 12.971713 53.334540 62.689040 -0.256325 0.000003 0.000015 -6.205235 16.882800 6.714970 -0.074229 0.008101 0.022282 0.012968 0.667619 -1.112105 -0.037712 0.000000 -0.000001 1.679197 1.282861 -0.674521 -0.023218 0.000022 0.000021 0.334984 1.286453 0.711007 -0.069261 0.008101 -0.033073 -0.000004 -0.000045 -0.000004 -0.035643 -0.000000 0.000000 -0.000001 -0.000001 -0.000000 -0.020542 0.000000 0.000000 -0.890203 -0.008562 1.101175 -0.075240 0.008101 0.002320 0.000001 -0.000009 0.000002 -0.042007 -0.000000 0.000000 -0.000002 0.000039 0.000011 -0.025915 -0.000000 -0.000000 -0.000001 0.000039 0.000013 -0.074383 0.008101 -0.015403 -0.000000 0.000014 -0.000009 -0.038967 0.000000 0.000000 -0.000002 0.000000 0.000001 -0.022488 -0.000000 -0.000000 0.712571 -0.008158 -1.310725 -0.003995 -0.010985 0.018096 -86.199439 49.487514 89.646581 -0.052819 -0.000008 -0.000074 2.573039 -0.739910 -0.463021 -0.032489 0.000042 -0.000035 -4.590282 -0.705067 0.717110 0.087143 -0.045243 0.001548 -9.578837 -9.339676 -1.568787 -0.000000 -0.394432 -0.000001 3.914608 18.874645 0.736877 -0.000000 -0.466446 0.003058 3.153014 -13.806495 13.342179 0.000000 -0.079218 0.140851 0.000001 0.248287 0.000003 -0.087143 -0.045243 0.001548 -15.107520 -17.886372 -4.739698 0.000000 -0.394432 -0.000001 9.940648 29.079742 -19.265131 0.000000 -0.466446 0.003058 5.871348 -14.209211 23.274355 -0.000000 -0.079218 0.140851 0.000000 0.248283 0.000001 
